<svg xmlns="http://www.w3.org/2000/svg" viewBox="0 0 257.43 170.34"><title>Asset 1</title><g id="Layer_2" data-name="Layer 2"><g id="Layer_1-2" data-name="Layer 1"><path d="M188,75.1a54.93,54.93,0,0,1,.74,10.47q0,10-1.72,14t-4.62,4a4.37,4.37,0,0,1-3.43-1.73,12.13,12.13,0,0,1-2.23-5.33,54.76,54.76,0,0,1-.77-10.6,52,52,0,0,1,.83-10.48A13.4,13.4,0,0,1,179,69.89a4.22,4.22,0,0,1,3.34-1.72,4.38,4.38,0,0,1,3.41,1.72A11.78,11.78,0,0,1,188,75.1Zm6.54,10.73A31.3,31.3,0,0,0,193,75.52a17.42,17.42,0,0,0-4.44-7.22,9,9,0,0,0-6.23-2.65q-5.11,0-8.59,5.74T170.23,86a31.33,31.33,0,0,0,1.58,10.45,18.16,18.16,0,0,0,4.31,7.14,8.71,8.71,0,0,0,6.2,2.64q5.19,0,8.7-5.81T194.54,85.83Z"/><path d="M133.51,75.1a54.93,54.93,0,0,1,.74,10.47q0,10-1.73,14t-4.61,4a4.38,4.38,0,0,1-3.43-1.73,12.25,12.25,0,0,1-2.23-5.33,54.76,54.76,0,0,1-.77-10.6,52,52,0,0,1,.83-10.48,13.25,13.25,0,0,1,2.25-5.54,4.19,4.19,0,0,1,3.33-1.72,4.38,4.38,0,0,1,3.41,1.72A11.67,11.67,0,0,1,133.51,75.1Zm6.54,10.73a31.3,31.3,0,0,0-1.59-10.31A17.42,17.42,0,0,0,134,68.3a9,9,0,0,0-6.22-2.65q-5.13,0-8.59,5.74T115.73,86a31.32,31.32,0,0,0,1.59,10.45,18.06,18.06,0,0,0,4.32,7.14,8.67,8.67,0,0,0,6.19,2.64q5.19,0,8.71-5.81T140.05,85.83Z"/><path d="M154.11,84.22h-2V72a4.65,4.65,0,0,1,.39-2.39c.26-.36.89-.54,1.91-.54a4.43,4.43,0,0,1,4,1.71,10.1,10.1,0,0,1,1.14,5.45c0,2.69-.38,4.6-1.16,5.74A4.87,4.87,0,0,1,154.11,84.22Zm13.27,12.43H166c-.14,3.06-.56,4.59-1.27,4.59-.26,0-.5-.22-.7-.66a15.94,15.94,0,0,1-.71-3.2,38.51,38.51,0,0,0-1.67-6.79,9.58,9.58,0,0,0-1.78-3.25A6,6,0,0,0,157,85.75a9,9,0,0,0,5.53-2.62,10,10,0,0,0,2.35-6.92,12.14,12.14,0,0,0-.94-4.86,7.73,7.73,0,0,0-2.84-3.46,8.79,8.79,0,0,0-5-1.27H143.63v2.44h2a1.07,1.07,0,0,1,1,.57,3.58,3.58,0,0,1,.33,1.76v29.24a3.3,3.3,0,0,1-.37,1.72,1.19,1.19,0,0,1-1.09.62h-1.88v2.44h12.1V103h-2.17a1.39,1.39,0,0,1-1.13-.66,2.59,2.59,0,0,1-.34-1.44V86.58h1.76a2.49,2.49,0,0,1,1.88.81A6.14,6.14,0,0,1,157,89.88,50.78,50.78,0,0,1,158,96.44q.53,4.17.81,5.3a6.89,6.89,0,0,0,1.41,3,3.18,3.18,0,0,0,2.47,1,3.64,3.64,0,0,0,3.32-2.11C166.83,102.23,167.27,99.9,167.38,96.65Z"/><path d="M88.64,105.41H77.44V103h1a2.53,2.53,0,0,0,1.71-.44,1.59,1.59,0,0,0,.47-1.19,5.58,5.58,0,0,0-.2-1.34l-1.84-7.18H69.7l-.86,3.28a13.71,13.71,0,0,0-.53,3,4.57,4.57,0,0,0,.78,2.77A2.49,2.49,0,0,0,71.21,103H72v2.44H62.89V103h.52a1.92,1.92,0,0,0,1.54-.89,9.38,9.38,0,0,0,1.46-3.23L75,65.65h1.81l9,34.8a5,5,0,0,0,.84,2,1.48,1.48,0,0,0,1.19.53h.87ZM70.36,90.25H78L74.19,75.47Z"/><path d="M111.67,101a7.91,7.91,0,0,1-3,3.07,9.55,9.55,0,0,1-5.12,1.34H89.8V103H92a.93.93,0,0,0,.86-.55,4.06,4.06,0,0,0,.39-1.81v-30a1.64,1.64,0,0,0-.37-1.1,1.54,1.54,0,0,0-1.22-.42H89.8V66.62h14.49a6.25,6.25,0,0,1,5.31,2.61,10.58,10.58,0,0,1,1.94,6.48A10.39,10.39,0,0,1,110,81.48a10.06,10.06,0,0,1-4.63,3.67,9.69,9.69,0,0,1,5.8,3.64,11.14,11.14,0,0,1,1.72,6.38A13,13,0,0,1,111.67,101ZM102,86.6H98.36v14.11a3.87,3.87,0,0,0,.29,1.68.89.89,0,0,0,.79.58h3.1a4,4,0,0,0,3.58-2,11,11,0,0,0,1.3-5.93A11.58,11.58,0,0,0,106,88.77,4.49,4.49,0,0,0,102,86.6Zm3-4.32c.8-1.25,1.19-3.33,1.19-6.23q0-3.76-1.14-5.37c-.76-1.06-2.22-1.59-4.36-1.59-1,0-1.67.14-1.94.44a2.4,2.4,0,0,0-.42,1.63v13h2.7A4.34,4.34,0,0,0,105,82.28Z"/><path d="M128.74,165.42h0l-1.44,0a.37.37,0,0,1-.35-.37.34.34,0,0,1,.37-.34l1.42,0a.36.36,0,0,1,.36.35A.35.35,0,0,1,128.74,165.42Zm2.14,0a.36.36,0,0,1,0-.71l1.42-.08a.36.36,0,1,1,.05.71l-1.44.08Zm-5.73-.08h0c-.48,0-1-.08-1.43-.13a.35.35,0,0,1-.32-.39.36.36,0,0,1,.4-.32c.46.05.93.1,1.41.13a.36.36,0,0,1,.33.38A.36.36,0,0,1,125.15,165.29Zm9.28-.21a.36.36,0,0,1-.35-.31.36.36,0,0,1,.31-.4l1.4-.2a.35.35,0,0,1,.41.29.36.36,0,0,1-.29.41c-.47.08-.94.15-1.43.21Zm-12.82-.2h-.06c-.49-.08-1-.17-1.42-.27a.36.36,0,0,1-.28-.42.37.37,0,0,1,.43-.27l1.38.26a.36.36,0,0,1,.3.41A.35.35,0,0,1,121.61,164.88Zm16.33-.43a.35.35,0,0,1-.34-.28.36.36,0,0,1,.26-.43l.45-.11.92-.26a.36.36,0,0,1,.19.69l-.93.25a3.45,3.45,0,0,1-.46.12Zm-19.81-.37H118l-1.38-.38a.35.35,0,1,1,.19-.68l1.37.37a.35.35,0,0,1,.25.44A.34.34,0,0,1,118.13,164.08Zm23.26-.57a.34.34,0,0,1-.34-.26.35.35,0,0,1,.25-.44l1.37-.37a.36.36,0,0,1,.44.25.35.35,0,0,1-.25.43l-1.38.38Zm-26.7-.37h-.1l-1.37-.37a.36.36,0,0,1-.25-.44.35.35,0,0,1,.43-.25l1.38.37a.36.36,0,0,1,.25.44A.35.35,0,0,1,114.69,163.14Zm30.14-.57a.35.35,0,0,1-.34-.26.36.36,0,0,1,.25-.44l1.38-.37a.35.35,0,0,1,.43.25.36.36,0,0,1-.25.44l-1.37.37Zm-33.59-.37h-.09l-1.38-.37a.36.36,0,0,1-.25-.44.36.36,0,0,1,.44-.25l1.38.37a.36.36,0,0,1-.1.7Zm37-.56a.37.37,0,0,1-.34-.27.35.35,0,0,1,.25-.43l1.38-.38a.36.36,0,0,1,.19.69l-1.38.37Zm-40.47-.37-.09,0-1.38-.37a.36.36,0,0,1,.19-.69l1.37.38a.34.34,0,0,1,.25.43A.35.35,0,0,1,107.8,161.27Zm43.92-.57a.36.36,0,0,1-.09-.7l1.37-.38a.36.36,0,0,1,.19.69l-1.38.38Zm-47.36-.37h-.1l-1.37-.38a.36.36,0,0,1,.18-.69l1.38.38a.36.36,0,0,1,.25.44A.36.36,0,0,1,104.36,160.33Zm50.8-.57a.35.35,0,0,1-.34-.26.36.36,0,0,1,.25-.44l1.38-.37a.34.34,0,0,1,.43.25.35.35,0,0,1-.25.43l-1.37.38Zm-54.25-.37h-.09L99.44,159a.35.35,0,1,1,.19-.68l1.38.37a.36.36,0,0,1-.1.7Zm57.69-.57a.35.35,0,0,1-.34-.26.36.36,0,0,1,.25-.44l1.38-.37a.36.36,0,0,1,.44.25.35.35,0,0,1-.25.43l-1.38.38Zm-61.13-.37h-.09L96,158.07a.36.36,0,0,1-.25-.44.36.36,0,0,1,.44-.25l1.37.37a.35.35,0,0,1,.25.44A.34.34,0,0,1,97.47,158.45Zm64.58-.57a.34.34,0,0,1-.34-.26.36.36,0,0,1,.25-.44l1.37-.37a.36.36,0,0,1,.44.25.36.36,0,0,1-.25.44l-1.38.37Zm-68-.37h-.1l-1.37-.37a.36.36,0,0,1,.18-.69l1.38.37a.36.36,0,0,1,.25.44A.35.35,0,0,1,94,157.51Zm71.46-.56a.36.36,0,0,1-.09-.7l1.38-.38a.36.36,0,0,1,.18.69l-1.37.37Zm-74.91-.37-.09,0-1.38-.37a.36.36,0,0,1,.19-.69l1.38.38a.35.35,0,0,1,.25.43A.37.37,0,0,1,90.58,156.58Zm78.36-.57a.37.37,0,0,1-.35-.26.36.36,0,0,1,.25-.44l1.38-.38a.36.36,0,1,1,.19.69L169,156Zm-81.8-.37h-.09l-1.38-.38a.36.36,0,0,1,.19-.69l1.37.38a.36.36,0,0,1-.09.7Zm85.24-.57a.36.36,0,0,1-.35-.26.37.37,0,0,1,.25-.44l1.38-.37a.35.35,0,0,1,.44.24.36.36,0,0,1-.25.44l-1.38.38ZM83.7,154.7h-.1l-1.37-.38a.35.35,0,0,1-.25-.43.36.36,0,0,1,.43-.26l1.38.38a.36.36,0,0,1,.25.44A.35.35,0,0,1,83.7,154.7Zm92.12-.57a.34.34,0,0,1-.34-.26.36.36,0,0,1,.25-.44l1.38-.37a.35.35,0,0,1,.43.25.34.34,0,0,1-.25.43l-1.37.38Zm-95.57-.37h-.09l-1.38-.38a.35.35,0,0,1-.25-.43.36.36,0,0,1,.44-.25l1.38.37a.36.36,0,0,1-.1.7Zm99-.57a.35.35,0,0,1-.34-.26.36.36,0,0,1,.25-.44l1.38-.37a.36.36,0,1,1,.19.69l-1.38.37Zm-102.45-.37h-.09l-1.38-.37a.36.36,0,0,1,.19-.69l1.37.37a.36.36,0,0,1,.25.44A.34.34,0,0,1,76.81,152.82Zm105.9-.56a.37.37,0,0,1-.35-.27.36.36,0,0,1,.25-.43l1.38-.38a.36.36,0,1,1,.19.69l-1.38.37Zm-109.34-.37-.1,0-1.37-.37a.36.36,0,0,1,.18-.69l1.38.38a.35.35,0,0,1,.25.43A.36.36,0,0,1,73.37,151.89Zm112.78-.57a.35.35,0,0,1-.34-.26.36.36,0,0,1,.25-.44l1.38-.38a.35.35,0,0,1,.43.25.36.36,0,0,1-.25.44l-1.37.38ZM69.92,151h-.09l-1.38-.38a.36.36,0,0,1,.19-.69l1.38.38a.36.36,0,0,1,.25.44A.38.38,0,0,1,69.92,151Zm119.68-.57a.35.35,0,0,1-.35-.26.36.36,0,0,1,.25-.44l1.38-.38a.37.37,0,0,1,.44.26.35.35,0,0,1-.25.43l-1.38.38ZM66.48,150h-.09L65,149.62a.35.35,0,0,1-.25-.43.36.36,0,0,1,.44-.25l1.37.37a.35.35,0,0,1,.25.44A.34.34,0,0,1,66.48,150ZM193,149.44a.36.36,0,0,1-.35-.26.37.37,0,0,1,.25-.44l1.38-.37a.36.36,0,0,1,.44.25.35.35,0,0,1-.25.43l-1.38.38Zm-130-.37h-.1l-1.37-.37a.36.36,0,0,1-.25-.44.35.35,0,0,1,.43-.25l1.38.37a.36.36,0,0,1,.25.44A.35.35,0,0,1,63,149.07Zm133.44-.57a.34.34,0,0,1-.34-.26.36.36,0,0,1,.25-.44l1.38-.37a.35.35,0,0,1,.43.25.36.36,0,0,1-.25.44l-1.37.37Zm-136.89-.36-.09,0-1.38-.37a.36.36,0,0,1,.19-.69l1.38.37a.36.36,0,0,1,.25.44A.37.37,0,0,1,59.59,148.14Zm140.34-.57a.36.36,0,0,1-.35-.27.35.35,0,0,1,.25-.43l1.38-.38a.36.36,0,0,1,.44.25.36.36,0,0,1-.25.44l-1.38.37ZM56.15,147.2l-.09,0-1.38-.37a.36.36,0,0,1,.19-.69l1.37.38a.35.35,0,0,1,.25.43A.35.35,0,0,1,56.15,147.2Zm147.22-.57a.38.38,0,0,1-.35-.26.36.36,0,0,1,.25-.44l1.38-.38a.36.36,0,1,1,.19.69l-1.38.38Zm-150.66-.37h-.1l-1.37-.38a.36.36,0,0,1,.18-.69l1.38.38a.36.36,0,0,1,.25.44A.36.36,0,0,1,52.71,146.26Zm154.1-.57a.34.34,0,0,1-.34-.26.36.36,0,0,1,.25-.44l1.38-.38a.36.36,0,0,1,.18.69l-1.37.38Zm-157.55-.37h-.09l-1.38-.38a.35.35,0,0,1-.25-.43.36.36,0,0,1,.44-.25l1.38.37a.36.36,0,0,1-.1.7Zm161-.57a.35.35,0,0,1-.34-.26.36.36,0,0,1,.25-.44l1.38-.37a.36.36,0,0,1,.44.25.35.35,0,0,1-.25.43l-1.38.38Zm-164.43-.37h-.09L44.35,144a.36.36,0,0,1-.25-.44.36.36,0,0,1,.44-.25l1.37.37a.35.35,0,0,1,.25.44A.34.34,0,0,1,45.82,144.38Zm167.88-.57a.36.36,0,0,1-.1-.7l1.38-.37a.36.36,0,0,1,.44.25.36.36,0,0,1-.25.44l-1.38.37Zm-171.32-.36-.1,0-1.37-.37a.36.36,0,0,1,.18-.69l1.38.38a.35.35,0,0,1,.25.43A.36.36,0,0,1,42.38,143.45Zm174.76-.57a.36.36,0,0,1-.34-.27.35.35,0,0,1,.25-.43l1.38-.38a.35.35,0,0,1,.43.25.36.36,0,0,1-.25.44l-1.37.37Zm-178.21-.37-.09,0-1.38-.37a.36.36,0,0,1,.19-.69l1.38.38a.35.35,0,0,1,.25.43A.37.37,0,0,1,38.93,142.51Zm181.65-.57a.36.36,0,0,1-.34-.26.36.36,0,0,1,.25-.44l1.38-.38a.36.36,0,0,1,.44.25.36.36,0,0,1-.25.44l-1.38.38Zm-185.09-.37H35.4L34,141.18a.36.36,0,0,1,.19-.69l1.37.38a.36.36,0,0,1-.09.7ZM224,141a.36.36,0,0,1-.1-.7l1.38-.38a.37.37,0,0,1,.44.25.35.35,0,0,1-.25.44l-1.38.38Zm-192-.37H32l-1.37-.38a.34.34,0,0,1-.25-.43.35.35,0,0,1,.43-.25l1.38.37a.36.36,0,0,1,.25.44A.35.35,0,0,1,32.05,140.63Zm195.42-.57a.34.34,0,0,1-.34-.26.36.36,0,0,1,.25-.44l1.38-.37a.35.35,0,0,1,.43.25.35.35,0,0,1-.25.43l-1.38.38ZM28.6,139.69h-.09l-1.38-.37a.36.36,0,0,1-.25-.44.36.36,0,0,1,.44-.25l1.38.37a.36.36,0,0,1-.1.7Zm202.31-.57a.35.35,0,0,1-.34-.26.36.36,0,0,1,.25-.44l1.38-.37a.36.36,0,0,1,.44.25.36.36,0,0,1-.25.44l-1.38.37Zm-205.75-.36-.09,0-1.38-.37a.36.36,0,0,1,.19-.69l1.37.37a.36.36,0,0,1,.25.44A.35.35,0,0,1,25.16,138.76Zm209.2-.57a.37.37,0,0,1-.35-.27.35.35,0,0,1,.25-.43l1.38-.38a.36.36,0,1,1,.19.69l-1.38.37Zm-212.64-.37-.1,0-1.37-.37a.36.36,0,0,1,.18-.69l1.38.38a.35.35,0,0,1,.25.44A.36.36,0,0,1,21.72,137.82Zm216.08-.57a.35.35,0,0,1-.34-.26.36.36,0,0,1,.25-.44l1.37-.38a.35.35,0,0,1,.44.25.36.36,0,0,1-.25.44l-1.38.38Zm-219.53-.37h-.09l-1.38-.38a.36.36,0,0,1-.25-.44.36.36,0,0,1,.44-.25l1.38.38a.36.36,0,0,1,.25.44A.38.38,0,0,1,18.27,136.88Zm223-.57a.35.35,0,0,1-.34-.26.36.36,0,0,1,.25-.44l1.32-.36.15.33,0,.36-1.33.36Zm-226.41-.37h-.09a11.41,11.41,0,0,1-1.39-.48.36.36,0,1,1,.27-.66,10.67,10.67,0,0,0,1.31.45.36.36,0,0,1-.1.7Zm229.79-.76a.37.37,0,0,1-.32-.2.36.36,0,0,1,.16-.48,13.4,13.4,0,0,0,1.22-.68.36.36,0,0,1,.49.12.37.37,0,0,1-.11.49c-.42.26-.85.5-1.28.71A.47.47,0,0,1,244.62,135.18Zm-233-.69a.34.34,0,0,1-.19-.05c-.4-.26-.81-.54-1.19-.84a.36.36,0,1,1,.44-.56c.36.28.75.55,1.13.8a.36.36,0,0,1,.12.49A.38.38,0,0,1,11.58,134.49Zm236-1.29a.35.35,0,0,1-.23-.62c.35-.3.69-.63,1-1a.35.35,0,1,1,.51.49c-.33.35-.69.69-1.05,1A.35.35,0,0,1,247.58,133.2Zm-238.75-1a.38.38,0,0,1-.26-.11c-.33-.36-.66-.73-1-1.11a.34.34,0,0,1,.06-.5.36.36,0,0,1,.5.06,12.91,12.91,0,0,0,.91,1,.36.36,0,0,1,0,.51A.39.39,0,0,1,8.83,132.24ZM250,130.57a.33.33,0,0,1-.21-.07.35.35,0,0,1-.08-.5q.41-.57.75-1.17a.36.36,0,1,1,.62.36c-.24.42-.51.83-.79,1.23A.35.35,0,0,1,250,130.57ZM6.69,129.39a.33.33,0,0,1-.3-.18,13.4,13.4,0,0,1-.68-1.3.36.36,0,1,1,.65-.29c.19.41.41.83.64,1.23a.36.36,0,0,1-.13.49A.37.37,0,0,1,6.69,129.39Zm245-1.95a.31.31,0,0,1-.13,0,.34.34,0,0,1-.2-.46,12.53,12.53,0,0,0,.43-1.31.36.36,0,1,1,.69.18,13.3,13.3,0,0,1-.46,1.39A.36.36,0,0,1,251.68,127.44ZM5.31,126.11a.35.35,0,0,1-.34-.27,12.13,12.13,0,0,1-.3-1.43A.35.35,0,0,1,5,124a.37.37,0,0,1,.4.3,11,11,0,0,0,.29,1.36.37.37,0,0,1-.25.44ZM252.5,124h0a.36.36,0,0,1-.33-.39q0-.42,0-.84v-.55a.36.36,0,0,1,.72,0v.55c0,.3,0,.6,0,.9A.36.36,0,0,1,252.5,124ZM4.9,122.58a.36.36,0,0,1-.36-.36v-1.43a.35.35,0,0,1,.36-.35.34.34,0,0,1,.35.35v1.43A.35.35,0,0,1,4.9,122.58Zm247.63-2.17a.36.36,0,0,1-.36-.35v-1.43a.36.36,0,0,1,.72,0v1.43A.36.36,0,0,1,252.53,120.41ZM4.9,119a.36.36,0,0,1-.36-.36v-1.43a.36.36,0,0,1,.36-.35.35.35,0,0,1,.35.35v1.43A.35.35,0,0,1,4.9,119Zm247.63-2.17a.36.36,0,0,1-.36-.35v-1.43a.36.36,0,0,1,.72,0v1.43A.36.36,0,0,1,252.53,116.84ZM4.9,115.44a.36.36,0,0,1-.36-.36v-1.43a.36.36,0,0,1,.36-.35.35.35,0,0,1,.35.35v1.43A.35.35,0,0,1,4.9,115.44Zm247.63-2.17a.35.35,0,0,1-.36-.35v-1.43a.36.36,0,0,1,.72,0v1.43A.35.35,0,0,1,252.53,113.27ZM4.9,111.87a.36.36,0,0,1-.36-.36v-1.42a.36.36,0,0,1,.36-.36.35.35,0,0,1,.35.36v1.42A.35.35,0,0,1,4.9,111.87Zm247.63-2.16a.36.36,0,0,1-.36-.36v-1.43a.36.36,0,0,1,.72,0v1.43A.36.36,0,0,1,252.53,109.71ZM4.9,108.3a.36.36,0,0,1-.36-.36v-1.42a.36.36,0,0,1,.36-.36.35.35,0,0,1,.35.36v1.42A.35.35,0,0,1,4.9,108.3Zm247.63-2.16a.36.36,0,0,1-.36-.36v-1.43a.36.36,0,0,1,.72,0v1.43A.36.36,0,0,1,252.53,106.14ZM4.9,104.73a.36.36,0,0,1-.36-.35V103a.36.36,0,0,1,.36-.36.35.35,0,0,1,.35.36v1.43A.35.35,0,0,1,4.9,104.73Zm247.63-2.16a.36.36,0,0,1-.36-.36v-1.43a.36.36,0,0,1,.72,0v1.43A.36.36,0,0,1,252.53,102.57ZM4.9,101.16a.36.36,0,0,1-.36-.35V99.38A.36.36,0,0,1,4.9,99a.35.35,0,0,1,.35.36v1.43A.35.35,0,0,1,4.9,101.16ZM252.53,99a.36.36,0,0,1-.36-.36V97.22a.36.36,0,0,1,.72,0v1.42A.36.36,0,0,1,252.53,99ZM4.9,97.59a.36.36,0,0,1-.36-.35V95.81a.36.36,0,0,1,.36-.36.35.35,0,0,1,.35.36v1.43A.35.35,0,0,1,4.9,97.59Zm247.63-2.16a.36.36,0,0,1-.36-.36V93.65a.36.36,0,0,1,.72,0v1.42A.36.36,0,0,1,252.53,95.43ZM4.9,94a.36.36,0,0,1-.36-.36V92.24a.35.35,0,0,1,.36-.35.34.34,0,0,1,.35.35v1.43A.35.35,0,0,1,4.9,94Zm247.63-2.17a.36.36,0,0,1-.36-.35V90.08a.36.36,0,0,1,.72,0v1.43A.36.36,0,0,1,252.53,91.86ZM4.9,90.46a.36.36,0,0,1-.36-.36V88.67a.36.36,0,0,1,.36-.35.35.35,0,0,1,.35.35V90.1A.35.35,0,0,1,4.9,90.46Zm247.63-2.17a.36.36,0,0,1-.36-.35V86.51a.36.36,0,0,1,.72,0v1.43A.36.36,0,0,1,252.53,88.29ZM4.9,86.89a.36.36,0,0,1-.36-.36V85.1a.36.36,0,0,1,.36-.35.35.35,0,0,1,.35.35v1.43A.35.35,0,0,1,4.9,86.89Zm247.63-2.17a.36.36,0,0,1-.36-.35V82.94a.36.36,0,0,1,.72,0v1.43A.36.36,0,0,1,252.53,84.72ZM4.9,83.32A.36.36,0,0,1,4.54,83V81.54a.36.36,0,0,1,.36-.36.35.35,0,0,1,.35.36V83A.35.35,0,0,1,4.9,83.32Zm247.63-2.16a.36.36,0,0,1-.36-.36V79.37a.36.36,0,0,1,.72,0V80.8A.36.36,0,0,1,252.53,81.16ZM4.9,79.75a.36.36,0,0,1-.36-.36V78a.36.36,0,0,1,.36-.36.35.35,0,0,1,.35.36v1.42A.35.35,0,0,1,4.9,79.75Zm247.63-2.16a.36.36,0,0,1-.36-.36V75.8a.36.36,0,0,1,.72,0v1.43A.36.36,0,0,1,252.53,77.59ZM4.9,76.18a.36.36,0,0,1-.36-.35V74.4A.36.36,0,0,1,4.9,74a.35.35,0,0,1,.35.36v1.43A.35.35,0,0,1,4.9,76.18ZM252.53,74a.36.36,0,0,1-.36-.36V72.23a.36.36,0,0,1,.72,0v1.43A.36.36,0,0,1,252.53,74ZM4.9,72.61a.36.36,0,0,1-.36-.35V70.83a.36.36,0,0,1,.36-.36.35.35,0,0,1,.35.36v1.43A.35.35,0,0,1,4.9,72.61Zm247.63-2.16a.36.36,0,0,1-.36-.36V68.67a.36.36,0,0,1,.72,0v1.42A.36.36,0,0,1,252.53,70.45ZM4.9,69a.36.36,0,0,1-.36-.35V67.26a.36.36,0,0,1,.36-.36.35.35,0,0,1,.35.36v1.43A.35.35,0,0,1,4.9,69Zm247.63-2.16a.36.36,0,0,1-.36-.36V65.1a.36.36,0,0,1,.72,0v1.42A.36.36,0,0,1,252.53,66.88ZM4.9,65.48a.36.36,0,0,1-.36-.36V63.69a.35.35,0,0,1,.36-.35.34.34,0,0,1,.35.35v1.43A.35.35,0,0,1,4.9,65.48Zm247.63-2.17a.36.36,0,0,1-.36-.35V61.53a.36.36,0,0,1,.72,0V63A.36.36,0,0,1,252.53,63.31ZM4.9,61.91a.36.36,0,0,1-.36-.36V60.12a.36.36,0,0,1,.36-.35.35.35,0,0,1,.35.35v1.43A.35.35,0,0,1,4.9,61.91Zm247.63-2.17a.36.36,0,0,1-.36-.35V58a.36.36,0,0,1,.72,0v1.43A.36.36,0,0,1,252.53,59.74ZM4.9,58.34A.36.36,0,0,1,4.54,58V56.55a.36.36,0,0,1,.36-.35.35.35,0,0,1,.35.35V58A.35.35,0,0,1,4.9,58.34Zm247.63-2.17a.36.36,0,0,1-.36-.35V54.39a.36.36,0,0,1,.72,0v1.43A.36.36,0,0,1,252.53,56.17ZM4.9,54.77a.36.36,0,0,1-.36-.36V53a.36.36,0,0,1,.36-.36.35.35,0,0,1,.35.36v1.42A.35.35,0,0,1,4.9,54.77Zm247.63-2.16a.36.36,0,0,1-.36-.36V50.82a.36.36,0,0,1,.72,0v1.43A.36.36,0,0,1,252.53,52.61ZM4.9,51.2a.36.36,0,0,1-.36-.36V49.42a.36.36,0,0,1,.36-.36.35.35,0,0,1,.35.36v1.42A.35.35,0,0,1,4.9,51.2ZM252.53,49a.36.36,0,0,1-.36-.35,10.87,10.87,0,0,0-.12-1.38.36.36,0,0,1,.71-.1,12.14,12.14,0,0,1,.12,1.46.36.36,0,0,1-.34.37ZM5,47.64H5a.36.36,0,0,1-.3-.41A12.29,12.29,0,0,1,5,45.79a.36.36,0,0,1,.44-.25.36.36,0,0,1,.25.44,13.19,13.19,0,0,0-.29,1.36A.35.35,0,0,1,5,47.64Zm246.88-2.1a.36.36,0,0,1-.34-.25,10.8,10.8,0,0,0-.51-1.29.36.36,0,0,1,.18-.47.35.35,0,0,1,.47.17c.2.45.38.91.54,1.37a.36.36,0,0,1-.23.45ZM6,44.23l-.15,0a.36.36,0,0,1-.17-.47,13.22,13.22,0,0,1,.66-1.3.36.36,0,0,1,.49-.13.35.35,0,0,1,.13.48A13.14,13.14,0,0,0,6.37,44,.36.36,0,0,1,6,44.23Zm244.31-1.9a.38.38,0,0,1-.3-.16,13.05,13.05,0,0,0-.81-1.14.35.35,0,0,1,.07-.5.36.36,0,0,1,.5.06,14.16,14.16,0,0,1,.84,1.19.35.35,0,0,1-.1.49A.36.36,0,0,1,250.35,42.33ZM7.89,41.19a.36.36,0,0,1-.28-.58c.3-.38.62-.75,1-1.11a.35.35,0,0,1,.5,0,.36.36,0,0,1,0,.5,13,13,0,0,0-.91,1.06A.37.37,0,0,1,7.89,41.19Zm240.2-1.61a.39.39,0,0,1-.25-.1,12.9,12.9,0,0,0-1-.92.35.35,0,0,1-.06-.5.36.36,0,0,1,.5-.06,14.26,14.26,0,0,1,1.1,1,.37.37,0,0,1,0,.51A.38.38,0,0,1,248.09,39.58Zm-237.7-.93a.35.35,0,0,1-.28-.13.36.36,0,0,1,.06-.5c.39-.31.79-.59,1.19-.85a.35.35,0,0,1,.49.11.35.35,0,0,1-.11.49,13.87,13.87,0,0,0-1.13.81A.34.34,0,0,1,10.39,38.65Zm234.85-1.21a.33.33,0,0,1-.17,0,13,13,0,0,0-1.24-.62.36.36,0,0,1-.19-.47.35.35,0,0,1,.47-.18,10.63,10.63,0,0,1,1.31.65.35.35,0,0,1,.13.48A.33.33,0,0,1,245.24,37.44Zm-231.8-.62a.35.35,0,0,1-.14-.68,10.52,10.52,0,0,1,1.39-.5.36.36,0,1,1,.19.69,11.22,11.22,0,0,0-1.3.46A.35.35,0,0,1,13.44,36.82Zm228.5-.68h-.1l-1.38-.39a.37.37,0,0,1-.24-.44.35.35,0,0,1,.44-.25l1.37.39a.36.36,0,0,1-.09.7Zm-225.1-.38a.37.37,0,0,1-.34-.26.36.36,0,0,1,.25-.44l1.37-.39a.35.35,0,0,1,.44.24.36.36,0,0,1-.25.44l-1.37.39Zm221.66-.6h-.09L237,34.76a.35.35,0,0,1,.2-.68l1.37.39a.36.36,0,0,1,.25.44A.37.37,0,0,1,238.5,35.16ZM20.28,34.78a.36.36,0,0,1-.1-.7l1.37-.39a.36.36,0,0,1,.44.25.35.35,0,0,1-.24.44l-1.38.39Zm214.79-.59H235l-1.37-.39a.36.36,0,0,1,.19-.69l1.38.39a.36.36,0,0,1-.1.7ZM23.71,33.81a.36.36,0,0,1-.1-.7L25,32.72a.35.35,0,1,1,.19.68l-1.37.39Zm207.93-.59-.1,0-1.38-.39a.36.36,0,0,1-.24-.44.35.35,0,0,1,.44-.24l1.37.39A.36.36,0,0,1,232,33,.37.37,0,0,1,231.64,33.22Zm-204.5-.39a.36.36,0,0,1-.34-.26.36.36,0,0,1,.25-.44l1.37-.39a.36.36,0,0,1,.19.69l-1.37.39Zm201.06-.59h-.09l-1.38-.39a.35.35,0,0,1-.24-.44.36.36,0,0,1,.44-.25l1.37.39a.36.36,0,0,1-.1.7ZM30.58,31.86a.36.36,0,0,1-.1-.7l1.37-.39a.36.36,0,0,1,.44.25.35.35,0,0,1-.24.44l-1.38.39Zm194.19-.59h-.1l-1.37-.39a.36.36,0,0,1-.25-.44.36.36,0,0,1,.44-.25l1.38.39a.35.35,0,0,1,.24.44A.35.35,0,0,1,224.77,31.27ZM34,30.89a.35.35,0,0,1-.34-.26.35.35,0,0,1,.24-.44l1.38-.39a.35.35,0,0,1,.44.24.36.36,0,0,1-.25.44l-1.37.39Zm187.33-.59-.1,0-1.37-.39a.36.36,0,0,1-.25-.44.35.35,0,0,1,.44-.24l1.37.39a.36.36,0,0,1,.25.44A.37.37,0,0,1,221.34,30.3Zm-183.9-.39a.36.36,0,0,1-.34-.26.36.36,0,0,1,.25-.44l1.37-.39a.36.36,0,0,1,.19.69l-1.37.39Zm180.46-.59h-.1l-1.37-.39a.35.35,0,0,1-.24-.44.36.36,0,0,1,.44-.25l1.37.39a.35.35,0,0,1,.24.44A.34.34,0,0,1,217.9,29.32Zm-177-.38a.36.36,0,0,1-.1-.7l1.37-.39a.36.36,0,0,1,.44.25.35.35,0,0,1-.24.44L41,28.92Zm173.59-.59-.1,0L213,27.94a.36.36,0,0,1-.25-.44.35.35,0,0,1,.44-.24l1.38.39a.35.35,0,0,1,.24.44A.35.35,0,0,1,214.47,28.35ZM44.31,28a.35.35,0,0,1-.34-.25.35.35,0,0,1,.24-.44l1.38-.39a.35.35,0,0,1,.44.24.36.36,0,0,1-.25.44L44.41,28ZM211,27.37h-.1L209.56,27a.36.36,0,0,1,.2-.69l1.37.39a.37.37,0,0,1,.25.44A.36.36,0,0,1,211,27.37ZM47.74,27a.36.36,0,0,1-.34-.26.36.36,0,0,1,.25-.44L49,25.9a.36.36,0,0,1,.44.25.36.36,0,0,1-.25.44L47.84,27ZM207.6,26.4h-.1L206.13,26a.35.35,0,0,1-.24-.44.36.36,0,0,1,.44-.25l1.37.39a.36.36,0,0,1-.1.7ZM51.18,26a.38.38,0,0,1-.35-.26.36.36,0,0,1,.25-.44l1.37-.39a.35.35,0,0,1,.2.68L51.27,26Zm153-.59-.1,0L202.7,25a.36.36,0,0,1-.25-.44.35.35,0,0,1,.44-.24l1.38.39a.35.35,0,0,1,.24.44A.36.36,0,0,1,204.17,25.43ZM54.61,25a.34.34,0,0,1-.34-.26.35.35,0,0,1,.24-.44L55.89,24a.36.36,0,0,1,.44.25.36.36,0,0,1-.25.44L54.71,25Zm146.13-.59h-.1l-1.37-.39a.36.36,0,0,1,.19-.69l1.37.39a.36.36,0,0,1,.25.44A.36.36,0,0,1,200.74,24.45ZM58,24.07a.36.36,0,0,1-.09-.7L59.32,23a.36.36,0,0,1,.44.25.37.37,0,0,1-.25.44l-1.37.39Zm139.26-.59-.09,0-1.38-.38a.36.36,0,0,1,.2-.69l1.37.39a.36.36,0,0,1-.1.7ZM61.48,23.1a.38.38,0,0,1-.35-.26.36.36,0,0,1,.25-.44L62.75,22a.35.35,0,0,1,.2.68l-1.38.39Zm132.39-.6h-.1l-1.37-.39a.36.36,0,0,1-.25-.44.35.35,0,0,1,.44-.24l1.38.39a.35.35,0,0,1-.1.69Zm-129-.38a.34.34,0,0,1-.34-.26.35.35,0,0,1,.24-.44L66.19,21a.36.36,0,0,1,.19.69L65,22.11Zm125.53-.59h-.1L189,21.13a.36.36,0,0,1-.25-.44.36.36,0,0,1,.44-.25l1.37.39a.36.36,0,0,1,.25.44A.36.36,0,0,1,190.44,21.53Zm-122.1-.38a.36.36,0,0,1-.09-.7l1.37-.39a.35.35,0,1,1,.19.68l-1.37.39ZM187,20.56l-.09,0-1.38-.39a.35.35,0,1,1,.2-.68l1.37.39a.36.36,0,0,1,.25.44A.38.38,0,0,1,187,20.56ZM71.78,20.17a.36.36,0,0,1-.1-.7l1.37-.39a.36.36,0,0,1,.44.25.35.35,0,0,1-.24.44l-1.38.39Zm111.79-.59h-.1l-1.37-.39a.36.36,0,0,1-.25-.44.36.36,0,0,1,.44-.25l1.38.39a.36.36,0,0,1-.1.7ZM75.21,19.2a.36.36,0,0,1-.1-.7l1.38-.39a.37.37,0,0,1,.44.25.36.36,0,0,1-.25.44l-1.37.39Zm104.93-.59H180l-1.37-.39a.36.36,0,0,1-.25-.44.35.35,0,0,1,.44-.25l1.37.39a.36.36,0,0,1-.09.7Zm-101.5-.38A.37.37,0,0,1,78.3,18a.36.36,0,0,1,.25-.44l1.37-.39a.35.35,0,0,1,.44.24.36.36,0,0,1-.25.44l-1.37.39Zm98.06-.59-.09,0-1.38-.39a.35.35,0,0,1,.2-.68l1.37.39a.36.36,0,0,1,.25.44A.38.38,0,0,1,176.7,17.64Zm-94.62-.39a.36.36,0,0,1-.1-.7l1.37-.39a.36.36,0,0,1,.44.25.35.35,0,0,1-.24.44l-1.38.39Zm91.19-.59h-.1l-1.37-.39a.36.36,0,0,1,.19-.69l1.38.39a.36.36,0,0,1-.1.7Zm-87.76-.38a.36.36,0,0,1-.1-.7l1.38-.39a.35.35,0,1,1,.19.68l-1.37.39Zm84.33-.59-.1,0-1.37-.39a.36.36,0,0,1-.25-.44.35.35,0,0,1,.44-.24l1.37.39a.36.36,0,0,1,.25.44A.37.37,0,0,1,169.84,15.69Zm-80.9-.39a.36.36,0,0,1-.34-.25.36.36,0,0,1,.25-.44l1.37-.39a.35.35,0,0,1,.44.24.36.36,0,0,1-.25.44L89,15.29Zm77.46-.59h-.09l-1.38-.39a.35.35,0,0,1-.24-.44.36.36,0,0,1,.44-.25l1.37.39a.36.36,0,0,1-.1.7Zm-74-.38a.36.36,0,0,1-.1-.7l1.37-.39a.36.36,0,0,1,.44.25.35.35,0,0,1-.24.44l-1.38.39ZM163,13.74h-.1l-1.37-.39a.36.36,0,0,1,.19-.69l1.38.39a.36.36,0,0,1-.1.7Zm-67.16-.38a.35.35,0,0,1-.34-.26.35.35,0,0,1,.24-.44l1.38-.39a.35.35,0,0,1,.44.24.36.36,0,0,1-.25.44l-1.37.39Zm63.73-.59-.1,0-1.37-.39a.36.36,0,0,1-.25-.44.35.35,0,0,1,.44-.24l1.37.39a.36.36,0,0,1,.25.44A.37.37,0,0,1,159.54,12.77Zm-60.3-.39a.36.36,0,0,1-.34-.26.36.36,0,0,1,.25-.44l1.37-.39a.36.36,0,0,1,.19.69l-1.37.39Zm56.86-.59H156l-1.38-.39a.35.35,0,0,1-.24-.44.36.36,0,0,1,.44-.25l1.37.39a.36.36,0,0,1-.1.7Zm-53.42-.38a.36.36,0,0,1-.1-.7l1.37-.39a.36.36,0,0,1,.44.25.35.35,0,0,1-.24.44l-1.38.39Zm50-.59-.1,0-1.37-.39a.35.35,0,1,1,.19-.68l1.38.39a.35.35,0,0,1,.24.44A.35.35,0,0,1,152.67,10.82Zm-46.56-.39a.35.35,0,0,1-.1-.69l1.38-.39a.35.35,0,0,1,.44.24.36.36,0,0,1-.25.44l-1.37.39Zm43.13-.59h-.1l-1.37-.39a.36.36,0,0,1-.25-.44.35.35,0,0,1,.44-.24l1.37.38a.37.37,0,0,1,.25.44A.36.36,0,0,1,149.24,9.84Zm-39.7-.38a.35.35,0,0,1-.34-.26.36.36,0,0,1,.25-.44l1.37-.39a.36.36,0,0,1,.44.25.36.36,0,0,1-.25.44l-1.37.39Zm36.26-.59h-.09l-1.38-.39a.35.35,0,0,1-.24-.44.36.36,0,0,1,.44-.25l1.37.39a.36.36,0,0,1-.1.7ZM113,8.49a.38.38,0,0,1-.35-.26.36.36,0,0,1,.25-.44l1.37-.39a.35.35,0,0,1,.44.24.35.35,0,0,1-.24.44l-1.38.39Zm29.39-.59-.1,0-1.37-.39a.36.36,0,0,1-.25-.44.35.35,0,0,1,.44-.24l1.38.39a.35.35,0,0,1,.24.44A.35.35,0,0,1,142.37,7.9Zm-26-.39a.34.34,0,0,1-.34-.26.35.35,0,0,1,.24-.44l1.38-.39a.37.37,0,0,1,.44.25.36.36,0,0,1-.25.44l-1.37.39Zm22.53-.59h-.1l-.56-.16-.81-.21a.36.36,0,0,1-.26-.43.36.36,0,0,1,.43-.26l.83.21.56.16a.36.36,0,0,1,.25.44A.36.36,0,0,1,138.94,6.92Zm-19.09-.36a.36.36,0,0,1-.35-.28.36.36,0,0,1,.26-.43c.46-.11.93-.21,1.42-.3a.35.35,0,0,1,.41.29.35.35,0,0,1-.28.41q-.72.13-1.38.3Zm15.61-.43h-.06l-1.4-.2a.36.36,0,0,1-.31-.39.36.36,0,0,1,.4-.32l1.42.2a.37.37,0,0,1,.3.41A.35.35,0,0,1,135.46,6.13Zm-12.1-.19a.36.36,0,0,1-.35-.32.34.34,0,0,1,.31-.39c.46-.06.94-.11,1.43-.15a.35.35,0,0,1,.39.33.36.36,0,0,1-.33.38q-.72.06-1.41.15Zm8.55-.2h0c-.47,0-.94-.06-1.42-.08a.35.35,0,0,1-.34-.37A.36.36,0,0,1,130.5,5l1.44.07a.37.37,0,0,1,.33.38A.36.36,0,0,1,131.91,5.74Zm-5-.08a.36.36,0,0,1-.36-.34.37.37,0,0,1,.35-.37c.47,0,1,0,1.43,0a.36.36,0,1,1,0,.71l-1.42,0Z"/><path d="M128.72,170.34a40.26,40.26,0,0,1-10.27-1.19L11.06,139.28A16,16,0,0,1,0,124.73V47A16.18,16.18,0,0,1,11,32.35L118.46,1.23a43.37,43.37,0,0,1,20.51,0L246.42,32.35a16.18,16.18,0,0,1,11,14.66v77.72a16,16,0,0,1-11.06,14.55L139,169.15A40.37,40.37,0,0,1,128.72,170.34Zm0-168.2a36.61,36.61,0,0,0-9.67,1.15L11.6,34.41A13.89,13.89,0,0,0,2.14,47v77.72a13.72,13.72,0,0,0,9.49,12.49L119,167.09a42.94,42.94,0,0,0,19.4,0L245.8,137.22a13.72,13.72,0,0,0,9.49-12.49V47a13.9,13.9,0,0,0-9.46-12.6L138.38,3.29A36.47,36.47,0,0,0,128.72,2.14Z"/></g></g></svg>