<?xml version="1.0" encoding="utf-8"?>
<!-- Generator: Adobe Illustrator 22.1.0, SVG Export Plug-In . SVG Version: 6.00 Build 0)  -->
<svg version="1.1" id="Layer_1" xmlns="http://www.w3.org/2000/svg" xmlns:xlink="http://www.w3.org/1999/xlink" x="0px" y="0px"
	 viewBox="0 0 130 140.1" style="enable-background:new 0 0 130 140.1;" xml:space="preserve">
<style type="text/css">
	.st0{fill:#86805F;}
	.st1{fill:none;}
</style>
<g>
	<g>
		<path class="st0" d="M18.6,88.3c-0.2,0-0.4,0-0.6-0.1c-1.2-0.3-2.5-1.4-2.3-3.9c0-0.5,0.2-2.2,0.6-4.7c-1.9,1.8-4,3.6-6.1,5.5
			c-3.2,2.8-6.2,2.2-7.3,1.8c-1.5-0.5-2.6-1.5-2.8-2.7c-0.1-0.8,0.1-1.5,0.6-2.1c1-1.1,2.7-1,3.4-1C5,81.3,5.6,82.1,5.5,83
			c0,0.3-0.2,0.6-0.4,0.9c0.7-0.1,1.7-0.4,2.8-1.3c3.4-2.9,6.4-5.7,9.2-8.4c1.1-5.8,2.9-13.5,5.9-21.8c-2.5,1-5,1.6-7.5,1.6
			c-2.6,0-5.1-0.7-7.5-2.4c-3.6-2.4-5.3-7.5-4.8-14.6c0.4-5.9,2.1-11.7,3.6-14.9c2.9-5.9,7.8-13.9,15-18.7c5.1-3.4,9.6-3.9,12-3.3
			c3.3,0.8,6.1,2.9,8.1,6.2c1.6,2.6,2.8,5.8,3.6,9.8c3.7-3.5,7.8-6.5,12-9c1.8-1.1,3.8-1.5,5.7-1.2c1.7,0.2,3.4,1.1,4.4,2.2
			c1.6,1.8,1.8,4,0.5,5.8c-4,5.5-13,13.3-22.6,21.6c-0.3,1.6-0.8,3.2-1.3,4.8c-1.7,5.3-4.4,10.8-8,16.3c-4.1,6.2-9.4,12.5-16.2,19.1
			c-0.7,4.2-1.1,7.1-1.2,8.4c0.4-0.2,0.9-0.3,1.4-0.1c0.9,0.3,1.3,1.3,1,2.1C21,87.6,19.8,88.4,18.6,88.3z M27.6,50.2
			c-0.4,1-0.8,1.9-1.1,2.9c-2.3,6.1-3.8,11.9-5,16.8c5-5.2,9-10.1,12.3-15c3.5-5.3,6-10.4,7.6-15.5c-1.2,1-2.4,2.1-3.6,3.1
			C34.6,45.3,31.2,48.1,27.6,50.2z M32.1,3.3c-1.7,0-4.7,0.6-8.3,3c-6.6,4.4-11.2,11.8-13.9,17.4c-1.4,2.8-3,8.2-3.3,13.6
			c-0.2,3.3,0,9.3,3.4,11.6c3.3,2.2,7.1,2.4,11.7,0.5c1-0.4,2.1-0.9,3.2-1.6c3.1-7.6,6.8-14.4,11-20.3c2.2-3,4.5-5.9,6.9-8.4
			c-1.3-9-4.6-14.4-9.7-15.7C32.9,3.4,32.6,3.3,32.1,3.3z M43.3,23.6c-1.6,1.9-3.2,3.8-4.7,5.9c-3.2,4.5-6.1,9.5-8.7,15
			c1.7-1.3,3.6-2.8,5.6-4.5c2.4-2,4.8-4.1,7.1-6.2C43.3,30.4,43.6,27,43.3,23.6z M46.4,20.3c0.1,0.8,0.2,1.6,0.2,2.5
			c0.2,2.6,0.2,5.2-0.1,7.8c8.3-7.2,15.8-13.8,19.2-18.5c0.1-0.2,0.6-0.8-0.2-1.7c-0.9-1-3.3-2-6-0.4C54.8,12.8,50.4,16.2,46.4,20.3
			z"/>
		<path class="st1" d="M26.3,75.2c-0.7,0-1.3-0.4-1.6-1.1c-0.3-0.9,0.2-1.8,1-2.1l0,0c0,0,1.9-0.7,3.1-1.8c0.7-0.6,1.7-0.6,2.4,0
			c0.6,0.7,0.6,1.7,0,2.4c-1.7,1.7-4.1,2.5-4.4,2.6C26.7,75.2,26.5,75.2,26.3,75.2z"/>
		<path class="st0" d="M52.3,86.6c-0.3,0-0.7-0.1-1.1-0.3c-1.2-0.6-1.6-2.1-1.6-5.2c0-2.3,0.3-5.3,0.9-8.8c0.1-0.6,0.2-1.2,0.3-1.9
			c-0.4,0.6-0.7,1.1-1.1,1.6c-2.8,4.2-4.7,7-6.1,8.7c-1.4,1.7-2.6,2.9-4.2,3.1c-1.3,0.2-2.6-0.6-3.4-2.1c-0.8-1.5-0.7-3.2,0.2-4.2
			c0.7-0.8,2-1.5,4.4-0.6c0.5,0.2,0.8,0.5,1,1c1.3-1.8,3.1-4.4,5.3-7.7c1.6-2.3,3.4-5.1,5.7-8.5c1.1-4.6,2.7-10.1,4.9-16.2
			c2.2-6,5.4-12.3,9-17.7c1.6-2.4,5.6-7.9,8.4-8.9c1-0.3,1.7-0.1,2.2,0.2c0.4,0.3,0.8,0.7,0.9,1.3c0.1,0.7,0.5,2.4-6.1,15.9
			c-3.1,6.3-7.4,14.4-10,18.1c-2.3,3.3-4.3,6.2-6.1,8.8c-0.7,2.9-1.3,5.7-1.8,8.4c-0.7,3.9-1,6.8-1.1,8.7c0.3,0.2,0.5,0.4,0.6,0.8
			c0,0,0.3,0.8,0.5,1.6c0.3,1.2,0.5,2.6-0.5,3.5C53.2,86.4,52.7,86.6,52.3,86.6z M73.7,24.1c-1.1,1.2-2.6,3-4.3,5.5
			c-2,3-5.9,9.2-8.7,17.1c-0.8,2.2-1.5,4.4-2.2,6.6c0.2-0.3,0.4-0.6,0.6-0.9c2.1-3,5.9-9.9,9.5-17.2C71.2,30.1,72.8,26.5,73.7,24.1z
			"/>
		<path class="st0" d="M68.3,89.9c-0.1,0-0.2,0-0.3,0c-1.4-0.1-2.7-0.9-3.7-2.3c-1.7-2.3-2.9-6.3-3.6-10.3c-1.3,0.7-2.6,1-3.9,1
			c-4-0.2-7.2-4.2-9.5-11.8c-1.7-5.6-2.7-12.3-2.8-16.4c0-1,0-1.9,0-2.5c0.1-1.4,0.7-2.2,1.7-2.3c0.5-0.1,1,0.1,1.4,0.4
			c0.7,0.5,1.4,1.1,3,12.9c0.8,5.5,1.3,11,1.4,11c0,0,0,0.1,0,0.1c0.5,1.1,1,2.1,1.6,2.9c1.1,1.5,2.2,2.3,3.3,2.4
			c0.4,0,0.7,0,1.1-0.1c-0.5-0.6-0.8-1.7-0.1-3.6c1.3-3.9,3.3-12.1,5.5-20.7c2-8,4.2-17,6.3-24.1c3.2-11,4.6-13.3,5.8-14.1
			c1.6-1.1,2.8-0.5,3.3-0.2c1,0.7,1.6,2.1,1.8,4.3c0.2,1.7,0.1,4-0.1,6.7c-0.4,5.4-1.6,12.3-3.2,19.5c-0.4,1.7-1.4,5.9-3.1,11
			c1.5-0.7,2.8-0.9,4.1-0.5c4.7,1.4,3.4,11.5,2.7,15.8C79.5,76.9,75.3,90,68.3,89.9z M63.6,74.9c0.5,4.1,1.6,8.6,3.3,10.7
			c0.3,0.4,0.8,0.9,1.3,1c3,0.2,6.8-6.2,8.8-15.2c0.9-3.8,1.3-7.6,1.3-10.6c-0.1-3.4-0.8-4.3-1-4.4c-0.5-0.1-2-0.2-5.1,2.9
			c-0.1,0.4-0.3,0.7-0.4,1.1c0.3,0.4,0.5,0.9,0.4,1.5c-0.2,0.7-0.8,1.2-1.5,1.3c-0.3,0.6-0.5,1.2-0.8,1.7
			C67.8,69.4,65.7,72.7,63.6,74.9z M77.1,15.7c-0.6,1.1-1.9,4-4.2,12.1c-2,7-4.2,15.8-6.2,23.7c-0.8,3.3-4,16.9-4.7,19.7
			c1.4-0.8,2.5-6.5,4.9-11.4c1-2.1,2.9-4.3,3.4-4.8c2.6-6.9,3.2-10.7,3.7-12.9c1.5-6.7,2.6-13.2,3.1-18.3
			C77.5,19,77.3,16.7,77.1,15.7z"/>
		<path class="st0" d="M117.2,88.1c-0.2,0-0.4,0-0.7,0c-1.9-0.2-3.5-0.8-4.8-1.9c-0.9,0.1-1.7-0.2-2.1-0.4
			c-5.7-3.6-5.2-14.7-4.8-21.4c0-0.2,0-0.4,0-0.6c-0.4,0.5-0.8,1.2-1.2,2c-1.4,2.4-2.9,5.4-4.3,8.3c-1.4,2.8-2.7,5.4-3.9,7.4
			c-0.9,1.5-2.2,3.7-3.9,3.7c-0.3,0-0.5-0.1-0.8-0.2C90,84.6,89.5,84,89.2,83c-2,1.4-4.4,1.7-7.3,0.9c-2.2-0.6-3.9-2.2-4.9-4.6
			c-0.9-2.1-1.1-4.7-0.5-7.3c1-4.9,3.8-8.6,7.3-9.5c2.6-0.7,5.2-0.3,7.4,1c0.9-2,1.8-3.6,2.6-4.1c0.7-0.5,1.6-0.5,2.2,0
			c0.9,0.7,1.2,2,1,4.5c-0.1,1.5-0.5,3.4-1,5.5c0.2,0.3,0.5,0.6,0.7,0.8c0.2,0.1,0.4,0.3,0.5,0.6c4.3-8.4,6.5-12.1,9-12.4
			c0.5,0,1,0.1,1.4,0.5c0.8,0.8,0.8,1.9,0.6,5.6c-0.2,3.2-0.4,8.6,0.4,12.8c0-3.7,1-7.9,2.5-11.6c-0.4-0.5-0.5-1.2-0.2-1.8
			c0.1-0.1,1.3-2.7,3.4-5.2c3.8-4.5,7.1-4.8,9.2-4.3c2.9,0.7,5,3.1,6,6.8c0.8,3,0.9,6.8,0.2,10.7C128.1,79.9,123.7,88.2,117.2,88.1z
			 M114.8,84.2c0.8,0.4,1.6,0.5,2,0.5c3.4,0.3,7.8-4.2,9.4-13.3c1.3-7.6-0.4-12.1-2.8-13.4c0.3,0.8,0.5,1.9,0.5,3
			C124,67.8,119.2,79.7,114.8,84.2z M119.7,58.3c-0.5,0.1-2.3,1.4-4.6,6.2c-2,4.3-3.2,9-3.3,12.8c0,1.9,0.3,3.4,0.7,4.4
			c0.9-1,2.1-2.6,3.4-5.2c2.1-4,3.7-8.8,4.3-12.4C120.9,60.5,120.4,58.8,119.7,58.3z M86.3,65.5c-0.6,0-1.2,0.1-1.8,0.2
			c-1.8,0.5-4,2.9-4.9,7c-0.8,3.9,0.5,7.3,3,8c1.9,0.5,3.9,0.7,5.8-1.6c-0.1-2.2,0-4.9,0.2-7.3c0.2-1.5,0.6-3.3,1.2-5.1
			C88.8,66,87.6,65.5,86.3,65.5z M92,80.1c0,0.2,0,0.3,0.1,0.4c1.1-1.7,2.7-4.8,3.9-7.2c-0.3,0-0.6,0-0.9-0.2
			C94.1,76.1,93.1,78.4,92,80.1z"/>
	</g>
	<g>
		<g>
			<polygon class="st0" points="62.4,105.3 60.3,105.3 60.3,104.2 63.9,104.2 63.9,105.2 62.2,111.7 60.7,111.7 			"/>
		</g>
		<g>
			<polygon class="st0" points="66.1,107.6 64.7,104.2 66.3,104.2 67.1,106.2 67.8,104.2 69.2,104.2 67.9,108.1 69.3,111.7 
				67.8,111.7 66.9,109.4 66.1,111.7 64.7,111.7 			"/>
		</g>
	</g>
	<g>
		<path class="st0" d="M83.1,110.7l1.4-6.8h1.3l1.4,6.8H86l-0.3-1.6h-1.2l-0.3,1.6H83.1z M84.6,108.3h0.9l-0.5-2.8L84.6,108.3z"/>
		<path class="st0" d="M91.9,110.7v-6.8h1.7c0.3,0,0.6,0,0.8,0.1c0.2,0.1,0.4,0.1,0.6,0.3c0.2,0.1,0.3,0.3,0.4,0.5
			c0.1,0.2,0.1,0.5,0.1,0.8c0,0.8-0.3,1.3-1,1.4c0.4,0.1,0.7,0.3,0.9,0.5c0.2,0.3,0.3,0.7,0.3,1.2c0,0.6-0.2,1.1-0.5,1.5
			c-0.3,0.3-0.8,0.5-1.4,0.5H91.9z M93.1,106.7h0.4c0.4,0,0.6-0.1,0.7-0.2c0.1-0.2,0.2-0.4,0.2-0.8c0-0.2,0-0.3-0.1-0.5
			c0-0.1-0.1-0.2-0.2-0.3c-0.1-0.1-0.2-0.1-0.4-0.1c-0.1,0-0.3,0-0.5,0h-0.2V106.7z M93.1,109.9h0.5c0.4,0,0.6-0.1,0.8-0.3
			c0.1-0.2,0.2-0.5,0.2-0.8c0-0.4-0.1-0.7-0.2-0.9c-0.2-0.2-0.4-0.3-0.8-0.3h-0.4V109.9z"/>
		<path class="st0" d="M102.5,110.8c-0.7,0-1.2-0.2-1.5-0.6c-0.3-0.4-0.5-0.9-0.5-1.7v-2.5c0-0.4,0-0.7,0.1-0.9
			c0.1-0.3,0.2-0.5,0.3-0.7c0.2-0.2,0.4-0.3,0.6-0.4c0.3-0.1,0.6-0.1,0.9-0.1c0.7,0,1.2,0.2,1.5,0.6c0.3,0.4,0.5,0.9,0.5,1.6v2.5
			c0,0.4,0,0.7-0.1,0.9c-0.1,0.3-0.2,0.5-0.3,0.7c-0.2,0.2-0.4,0.3-0.6,0.4C103.1,110.8,102.8,110.8,102.5,110.8z M102.1,109.8
			c0.1,0,0.2,0.1,0.3,0.1c0.1,0,0.2,0,0.3-0.1c0.1,0,0.2-0.1,0.2-0.1c0.1-0.1,0.1-0.1,0.1-0.2c0-0.1,0-0.2,0.1-0.3
			c0-0.1,0-0.2,0-0.3v-3.1c0-0.2,0-0.3,0-0.4c0-0.1,0-0.2-0.1-0.3c0-0.1-0.1-0.2-0.2-0.2c-0.1,0-0.2-0.1-0.4-0.1s-0.3,0-0.4,0.1
			c-0.1,0-0.2,0.1-0.2,0.2c0,0.1-0.1,0.2-0.1,0.3c0,0.1,0,0.2,0,0.4v3.1c0,0.1,0,0.2,0,0.3c0,0.1,0,0.2,0.1,0.3
			c0,0.1,0.1,0.2,0.1,0.2C102,109.8,102.1,109.8,102.1,109.8z"/>
		<path class="st0" d="M109.4,110.7v-6.8h1.6c0.4,0,0.7,0,0.9,0.1c0.3,0.1,0.5,0.2,0.7,0.3c0.2,0.1,0.3,0.3,0.4,0.6
			c0.1,0.2,0.1,0.5,0.1,0.9c0,0.4-0.1,0.8-0.2,1c-0.1,0.3-0.3,0.5-0.6,0.6l0.9,3.3H112l-0.8-3.1h-0.5v3.1H109.4z M110.6,106.8h0.3
			c0.4,0,0.6-0.1,0.8-0.2c0.2-0.2,0.2-0.4,0.2-0.8c0-0.4-0.1-0.6-0.2-0.8c-0.1-0.2-0.4-0.2-0.7-0.2h-0.4V106.8z"/>
		<path class="st0" d="M120,110.8c-0.7,0-1.2-0.2-1.5-0.6c-0.3-0.4-0.5-0.9-0.5-1.7v-2.5c0-0.4,0-0.7,0.1-0.9
			c0.1-0.3,0.2-0.5,0.3-0.7c0.2-0.2,0.4-0.3,0.6-0.4c0.3-0.1,0.6-0.1,0.9-0.1c0.7,0,1.2,0.2,1.5,0.6c0.3,0.4,0.5,0.9,0.5,1.6v2.5
			c0,0.4,0,0.7-0.1,0.9c-0.1,0.3-0.2,0.5-0.3,0.7c-0.2,0.2-0.4,0.3-0.6,0.4C120.6,110.8,120.3,110.8,120,110.8z M119.7,109.8
			c0.1,0,0.2,0.1,0.3,0.1c0.1,0,0.2,0,0.3-0.1c0.1,0,0.2-0.1,0.2-0.1c0.1-0.1,0.1-0.1,0.1-0.2c0-0.1,0-0.2,0.1-0.3
			c0-0.1,0-0.2,0-0.3v-3.1c0-0.2,0-0.3,0-0.4c0-0.1,0-0.2-0.1-0.3c0-0.1-0.1-0.2-0.2-0.2c-0.1,0-0.2-0.1-0.4-0.1s-0.3,0-0.4,0.1
			c-0.1,0-0.2,0.1-0.2,0.2c0,0.1-0.1,0.2-0.1,0.3c0,0.1,0,0.2,0,0.4v3.1c0,0.1,0,0.2,0,0.3c0,0.1,0,0.2,0.1,0.3
			c0,0.1,0.1,0.2,0.1,0.2C119.5,109.8,119.6,109.8,119.7,109.8z"/>
	</g>
	<g>
		<path class="st0" d="M8.7,110.7l0.1-6.8H10l1,4.8l1-4.8h1.2l0.1,6.8h-0.9l-0.1-4.7l-1,4.7h-0.7l-1-4.7l-0.1,4.7H8.7z"/>
		<path class="st0" d="M16.3,110.7v-6.8h1.2v6.8H16.3z"/>
		<path class="st0" d="M22.3,110.8c-0.3,0-0.5,0-0.8-0.1c-0.2-0.1-0.4-0.2-0.6-0.3c-0.1-0.1-0.3-0.3-0.4-0.5
			c-0.1-0.2-0.2-0.4-0.2-0.6c0-0.2-0.1-0.5-0.1-0.7v-2.4c0-0.3,0-0.6,0.1-0.8c0-0.2,0.1-0.4,0.2-0.6c0.1-0.2,0.2-0.4,0.4-0.5
			c0.1-0.1,0.3-0.2,0.6-0.3c0.2-0.1,0.5-0.1,0.8-0.1c0.3,0,0.6,0,0.9,0.1c0.2,0.1,0.4,0.2,0.6,0.4c0.1,0.2,0.2,0.4,0.3,0.6
			c0.1,0.2,0.1,0.5,0.1,0.8v0.6H23v-0.6c0-0.3,0-0.6-0.1-0.7c-0.1-0.2-0.2-0.4-0.5-0.4c0,0,0,0-0.1,0c-0.1,0-0.2,0-0.3,0
			c-0.1,0-0.1,0.1-0.2,0.1c0,0.1-0.1,0.1-0.1,0.2c0,0.1-0.1,0.1-0.1,0.2c0,0.1,0,0.2,0,0.3c0,0.1,0,0.2,0,0.3v2.9
			c0,0.4,0,0.7,0.1,0.8c0.1,0.2,0.3,0.3,0.5,0.3c0.1,0,0.2,0,0.2,0c0.1,0,0.1,0,0.2-0.1c0,0,0.1-0.1,0.1-0.1c0-0.1,0.1-0.1,0.1-0.2
			c0-0.1,0-0.1,0-0.2c0-0.1,0-0.2,0-0.2c0-0.1,0-0.1,0-0.3v-0.6h1.2v0.6c0,0.3,0,0.5-0.1,0.7c0,0.2-0.1,0.4-0.2,0.6
			s-0.2,0.3-0.3,0.4s-0.3,0.2-0.5,0.3C22.9,110.8,22.6,110.8,22.3,110.8z"/>
		<path class="st0" d="M26.9,110.7v-6.8h1.2v2.8h1.4v-2.8h1.2v6.8h-1.2v-3.1h-1.4v3.1H26.9z"/>
		<path class="st0" d="M33.7,110.7v-6.8h2.8v0.9H35v1.9h1.3v0.9H35v2.2h1.6v0.9H33.7z"/>
		<path class="st0" d="M39.2,110.7v-6.8h1.2v5.9h1.6v0.9H39.2z"/>
		<path class="st0" d="M44.7,110.7v-6.8h2.8v0.9h-1.6v1.9h1.3v0.9h-1.3v2.2h1.6v0.9H44.7z"/>
	</g>
	<polygon class="st1" points="70,99 59.7,99 54.5,107.9 59.7,116.9 70,116.9 75.2,107.9 	"/>
	<g>
		<g>
			<polygon class="st0" points="65,129.3 63.6,133.4 59.3,133.4 62.8,136 61.5,140.1 65,137.5 68.5,140.1 67.1,136 70.6,133.4 
				66.3,133.4 			"/>
		</g>
		<g>
			<polygon class="st0" points="84.5,126.8 83.5,129.9 80.3,129.9 82.9,131.7 81.9,134.8 84.5,132.9 87.1,134.8 86.1,131.7 
				88.6,129.8 85.4,129.9 			"/>
		</g>
		<g>
			<polygon class="st0" points="102.4,122.9 101.5,125.5 98.8,125.5 101,127 100.2,129.6 102.3,128 104.5,129.6 103.7,127 
				105.8,125.5 103.2,125.5 			"/>
		</g>
		<g>
			<polygon class="st0" points="118.6,117.9 117.9,119.9 115.8,119.9 117.5,121.2 116.8,123.2 118.6,121.9 120.3,123.2 119.6,121.2 
				121.4,119.9 119.2,119.9 			"/>
		</g>
		<g>
			<polygon class="st0" points="11.4,117.9 10.8,119.9 8.6,119.9 10.4,121.2 9.7,123.2 11.4,121.9 13.2,123.2 12.5,121.2 
				14.2,119.9 12.1,119.9 			"/>
		</g>
		<g>
			<polygon class="st0" points="27.6,122.9 26.8,125.5 24.2,125.5 26.3,127 25.5,129.6 27.6,128 29.8,129.6 29,127 31.1,125.5 
				28.5,125.5 			"/>
		</g>
		<g>
			<polygon class="st0" points="45.5,126.8 44.5,129.9 41.3,129.8 43.9,131.7 42.9,134.7 45.5,132.9 48.1,134.8 47.1,131.7 
				49.7,129.9 46.5,129.9 			"/>
		</g>
	</g>
</g>
</svg>
